<svg width="200" height="50" viewBox="0 0 200 50" xmlns="http://www.w3.org/2000/svg"><g fill-rule="evenodd"><path d="M29.472 31.418l.963.951-5.244 4.427-.963-.951 5.244-4.427zm.235.747l-.532-.02.447.442.02-.494-4.685 3.956.532.02-.447-.442-.021.494 4.686-3.956zm-4.493-7.498l1.042-.879 12.448 12.3-1.042.878-12.448-12.299zm.814-.218l-.021.495.483-.409-.532-.019 11.932 11.79.021-.495-.483.408.532.02-11.932-11.79zm-1.545-6.222l1.041-.88 19.961 19.72-1.041.878-19.961-19.718zm.813-.218l-.02.494.483-.408-.533-.02 19.445 19.21.022-.495-.484.408.532.02-19.445-19.21zm5.497.535l1.041-.88 13.707 13.539-1.042.879-13.706-13.538zm.814-.218l-.021.494.483-.408-.532-.02 13.19 13.029.021-.494-.483.408.532.019-13.19-13.028zm19.069 5.55c3.028-2.555 3.214-6.867.416-9.632-2.8-2.767-7.527-2.937-10.558-.38-3.028 2.555-3.215 6.866-.416 9.631 2.8 2.767 7.527 2.937 10.558.38zm.511.513c-3.337 2.815-8.54 2.628-11.623-.419-3.085-3.048-2.88-7.803.459-10.62 3.336-2.815 8.54-2.628 11.623.419 3.085 3.048 2.88 7.804-.459 10.62zm-.447-.441c-3.07 2.59-7.856 2.417-10.692-.386-2.838-2.804-2.65-7.18.422-9.77 3.07-2.59 7.856-2.418 10.692.385 2.838 2.804 2.65 7.18-.422 9.77zm-.511-.514c2.761-2.33 2.93-6.26.38-8.782-2.554-2.523-6.865-2.678-9.628-.347-2.761 2.33-2.931 6.261-.38 8.782 2.554 2.523 6.865 2.678 9.628.347zm-22.172-9.329c.188-.553-.15-1.141-.758-1.314-.61-.173-1.257.138-1.445.692-.188.553.15 1.141.758 1.314.61.173 1.257-.138 1.445-.692zm-1.667 1.358c-1.008-.286-1.572-1.266-1.258-2.188.313-.921 1.383-1.435 2.39-1.15 1.007.286 1.571 1.266 1.257 2.188-.313.921-1.383 1.435-2.39 1.15zm.195-.575c-.66-.187-1.03-.83-.825-1.435.206-.604.907-.94 1.566-.753.66.187 1.03.83.824 1.435-.205.604-.906.94-1.565.753zm.843-.961c.08-.236-.064-.487-.325-.561-.262-.075-.54.059-.62.296-.08.235.064.487.325.56.262.075.54-.058.62-.295zm23.036 22.901a.985.985 0 00.064-1.482 1.234 1.234 0 00-1.632-.059.985.985 0 00-.064 1.482 1.234 1.234 0 001.632.059zm.511.514c-.774.653-1.981.61-2.697-.098-.718-.709-.67-1.816.107-2.47.774-.654 1.98-.61 2.697.097.717.709.67 1.816-.107 2.47zm-.447-.442c-.507.428-1.297.4-1.766-.064a1.079 1.079 0 01.07-1.62 1.335 1.335 0 011.766.063c.47.465.44 1.191-.07 1.62zm-.511-.514a.42.42 0 00.027-.632.53.53 0 00-.701-.025.42.42 0 00-.028.632.53.53 0 00.702.025z" fill-rule="nonzero"/><path d="M84.21 30.577c0 3.065-.492 4.389-1.627 5.469-1.097 1.01-2.46 1.428-4.692 1.428h-4.806V12.672h4.844c2.195 0 3.52.383 4.579 1.428 1.135 1.115 1.475 2.404 1.475 4.982 0 1.741-.227 3.274-1.589 4.528-.53.488-1.135.836-1.703.975.72.14 1.325.488 1.854.976 1.476 1.393 1.665 3.24 1.665 5.016zm-2.232 0c0-3.623-1.438-5.051-4.011-5.051h-2.65v10.102h2.65c2.573 0 4.01-1.08 4.01-5.051zm-.227-11.46c0-3.623-1.362-4.599-3.784-4.599h-2.65v9.196h2.65c2.422 0 3.784-1.288 3.784-4.598zm16.46 18.357v-1.846H91.06v-9.65h6.168v-1.846H91.06v-9.614h7.151v-1.846h-9.384v24.802h9.384zm13.774 0v-1.846h-7.151v-9.65h6.168v-1.846h-6.168v-9.614h7.151v-1.846h-9.384v24.802h9.384zM127.5 19.569c0 5.225-2.006 6.932-5.827 6.932h-3.066v10.973h-2.232V12.672h5.298c3.216 0 5.827 1.08 5.827 6.897zm-2.233.035c0-3.24-.832-5.086-3.519-5.086h-3.14v10.137h3.14c2.687 0 3.52-1.811 3.52-5.051z"/></g></svg>