<?xml version="1.0" encoding="utf-8"?>
<!-- Generator: Adobe Adobe Illustrator 24.2.0, SVG Export Plug-In . SVG Version: 6.00 Build 0)  -->
<svg version="1.1" xmlns="http://www.w3.org/2000/svg" xmlns:xlink="http://www.w3.org/1999/xlink" x="0px" y="0px"
	 viewBox="0 0 180 180" style="enable-background:new 0 0 180 180;" xml:space="preserve">
<style type="text/css">
	.st0{display:none;}
	.st1{display:inline;fill:none;stroke:#000000;stroke-width:8;stroke-miterlimit:10;stroke-dasharray:0,0,0,0,0,0;}
	.st2{display:inline;fill:none;stroke:#F8B133;stroke-width:8;stroke-miterlimit:10;stroke-dasharray:0,0,0,0,0,0;}
	.st3{display:inline;stroke:#D1051D;stroke-width:8;stroke-miterlimit:10;stroke-dasharray:0,0,0,0,0,0;}
	.st4{display:inline;fill:none;stroke:#D1051D;stroke-width:8;stroke-miterlimit:10;stroke-dasharray:0,0,0,0,0,0;}
	.st5{display:inline;stroke:#F8B133;stroke-width:8;stroke-miterlimit:10;stroke-dasharray:0,0,0,0,0,0;}
	.st6{fill:none;stroke:#000000;stroke-width:8;stroke-miterlimit:10;stroke-dasharray:0,0,0,0,0,0;}
	.st7{stroke:#F8B133;stroke-width:8;stroke-miterlimit:10;stroke-dasharray:0,0,0,0,0,0;}
</style>
<g id="Layer_2" class="st0">
	<line class="st1" x1="166.75" y1="156.8" x2="16.06" y2="156.8"/>
	<line class="st1" x1="20.06" y1="156.8" x2="20.06" y2="8.57"/>
	<path class="st2" d="M24.62,65.23c20.4,0.28,40.8,0.57,61.05,1.09c0.72,11.91,1.44,23.83,2.24,35.22
		c26.22,2.06,52.54,3.03,78.84,2.89"/>
</g>
<g id="Layer_7" class="st0">
	<line class="st1" x1="164.75" y1="156.8" x2="14.06" y2="156.8"/>
	<line class="st3" x1="18.06" y1="41.32" x2="164.75" y2="41.32"/>
	<line class="st1" x1="18.06" y1="156.8" x2="18.06" y2="8.57"/>
</g>
<g id="Layer_8" class="st0">
	<path class="st4" d="M18.69,114.72c3.15-7.36,8.66-16.11,16.55-14.75c12.25,2.12,9.99,24.42,21.85,28.12
		c8.39,2.62,15.49-6.4,19.65-14.14s11.15-16.8,19.58-14.31c10.67,3.15,9.81,21.1,20.11,25.3c5.82,2.37,12.52-1.09,16.66-5.81
		c4.14-4.73,6.68-10.65,10.67-15.51c3.99-4.85,10.35-8.7,16.37-6.89"/>
	<line class="st1" x1="164.75" y1="158.95" x2="14.06" y2="158.95"/>
	<line class="st1" x1="18.06" y1="158.95" x2="18.06" y2="10.72"/>
</g>
<g id="Layer_5" class="st0">
	<line class="st1" x1="165.34" y1="156.8" x2="14.66" y2="156.8"/>
	<line class="st1" x1="18.66" y1="156.8" x2="18.66" y2="8.57"/>
	<path class="st2" d="M23.14,111.77c21.25-3.12,43-2.85,64.76,1.54c1.77-25.49,2.39-51.06,1.83-76.6
		c24.88,3.29,50.18,3.33,75.01,0.47"/>
</g>
<g id="Layer_4" class="st0">
	<line class="st1" x1="165.34" y1="156.8" x2="14.66" y2="156.8"/>
	<line class="st5" x1="18.66" y1="65.23" x2="165.34" y2="84.84"/>
	<line class="st1" x1="18.66" y1="156.8" x2="18.66" y2="8.57"/>
</g>
<g id="Layer_3">
	<line class="st6" x1="165.34" y1="156.8" x2="14.66" y2="156.8"/>
	<line class="st7" x1="18.66" y1="106.83" x2="165.34" y2="41.32"/>
	<line class="st6" x1="18.66" y1="156.8" x2="18.66" y2="8.57"/>
</g>
</svg>
